M48
METRIC,LZ,000.000
;FILE_FORMAT=3:3
;TYPE=PLATED
;Layer: PTH_Through
;EasyEDA v6.5.51, 2026-01-30 13:44:17
;92297e22193845c58655d16a6a8cf733,4a48564a065a4812aa16136ba7ac55d9,10
;Gerber Generator version 0.2
;Holesize 1 = 0.305 mm
T01C0.305
;Holesize 2 = 0.915 mm
T02C0.915
;Holesize 3 = 1.000 mm
T03C1.000
%
G05
G90
T01
X042283Y133469
X041283Y133469
X041283Y132469
X042283Y132469
X093432Y128154
X097720Y099949
X033060Y097610
X088277Y126164
X080915Y075596
X023896Y118779
X044525Y136205
X039116Y134976
X064871Y113892
X076562Y076073
X075702Y083492
X064871Y129340
X014518Y098535
X014531Y095290
X090063Y116285
X025079Y104437
X024745Y096838
X083294Y091747
X015034Y097948
X024011Y121381
X021422Y115257
X026223Y098203
X011811Y099881
X023498Y071946
X078912Y071946
X088335Y099626
X013910Y099215
X028029Y080399
X074421Y099985
X012813Y099985
X012247Y098012
X024343Y112957
X032726Y081052
T02
X081090Y080535
X083088Y080535
X085090Y080535
X087089Y080535
X089091Y080535
X089091Y082533
X087089Y082533
X085090Y082533
X083088Y082533
X081090Y082533
X033060Y113284
X035560Y113284
X038060Y113284
X033060Y103124
X035560Y103124
X038060Y103124
X033187Y092837
X035687Y092837
X038187Y092837
X033187Y082677
X035687Y082677
X038187Y082677
X048427Y113157
X050927Y113157
X053427Y113157
X048427Y102997
X050927Y102997
X053427Y102997
X048300Y092837
X050800Y092837
X053300Y092837
X048427Y082804
X050927Y082804
X053427Y082804
X061127Y108204
X063627Y108204
X066127Y108204
X061127Y097917
X063627Y097917
X066127Y097917
X061127Y087884
X063627Y087884
X066127Y087884
T03
X081220Y119380
X078720Y119380
X076220Y119380
X073720Y119380
X081220Y111760
X078720Y111760
X076220Y111760
X073720Y111760
X081220Y101727
X078720Y101727
X076220Y101727
X073720Y101727
X081220Y091440
X078720Y091440
X076220Y091440
X073720Y091440
X095063Y119507
X092563Y119507
X090063Y119507
X087563Y119507
X095063Y111760
X092563Y111760
X090063Y111760
X087563Y111760
X095063Y101600
X092563Y101600
X090063Y101600
X087563Y101600
X095190Y091440
X092690Y091440
X090190Y091440
X087690Y091440
M30
