M48
METRIC,LZ,000.000
;FILE_FORMAT=3:3
;TYPE=PLATED
;Layer: PTH_Through_Via
;EasyEDA v6.5.51, 2026-01-30 13:44:17
;92297e22193845c58655d16a6a8cf733,4a48564a065a4812aa16136ba7ac55d9,10
;Gerber Generator version 0.2
;Holesize 1 = 0.305 mm
T01C0.305
%
G05
G90
T01
X042283Y133469
X041283Y133469
X041283Y132469
X042283Y132469
X093432Y128154
X097720Y099949
X033060Y097610
X088277Y126164
X080915Y075596
X023896Y118779
X044525Y136205
X039116Y134976
X064871Y113892
X076562Y076073
X075702Y083492
X064871Y129340
X014518Y098535
X014531Y095290
X090063Y116285
X025079Y104437
X024745Y096838
X083294Y091747
X015034Y097948
X024011Y121381
X021422Y115257
X026223Y098203
X011811Y099881
X023498Y071946
X078912Y071946
X088335Y099626
X013910Y099215
X028029Y080399
X074421Y099985
X012813Y099985
X012247Y098012
X024343Y112957
X032726Y081052
M30
