G04 Layer: TopLayer*
G04 EasyEDA v6.5.51, 2026-01-30 13:44:17*
G04 92297e22193845c58655d16a6a8cf733,4a48564a065a4812aa16136ba7ac55d9,10*
G04 Gerber Generator version 0.2*
G04 Scale: 100 percent, Rotated: No, Reflected: No *
G04 Dimensions in millimeters *
G04 leading zeros omitted , absolute positions ,4 integer and 5 decimal *
%FSLAX45Y45*%
%MOMM*%

%AMMACRO1*21,1,$1,$2,0,0,$3*%
%ADD10C,0.2540*%
%ADD11R,2.4000X2.4000*%
%ADD12MACRO1,1.35X1.41X90.0000*%
%ADD13R,0.5000X0.5400*%
%ADD14MACRO1,1.728X1.485X90.0000*%
%ADD15R,1.3000X4.5000*%
%ADD16R,3.0000X4.5000*%
%ADD17R,0.0164X4.5000*%
%ADD18MACRO1,2.1924X2.0475X90.0000*%
%ADD19R,2.0000X2.0000*%
%ADD20MACRO1,1.5011X0.9982X0.0000*%
%ADD21MACRO1,1.4986X0.9982X0.0000*%
%ADD22R,1.2500X0.7000*%
%ADD23MACRO1,0.54X0.5656X90.0000*%
%ADD24MACRO1,3.456X1.2825X90.0000*%
%ADD25R,1.0000X0.7500*%
%ADD26O,1.8034X0.4064*%
%ADD27O,0.28001X1.620012*%
%ADD28R,0.6750X0.2800*%
%ADD29R,0.2800X0.6750*%
%ADD30R,0.5000X0.2800*%
%ADD31R,0.2800X0.5000*%
%ADD32R,0.3000X0.3000*%
%ADD33O,0.573989X2.037994*%
%ADD34MACRO1,2X2X90.0000*%
%ADD35R,2.5000X1.1000*%
%ADD36MACRO1,3.6X2.34X-90.0000*%
%ADD37R,1.1901X1.7280*%
%ADD38MACRO1,1.2X1.4X90.0000*%
%ADD39R,1.4000X1.2000*%
%ADD40MACRO1,1.2X1.4X-90.0000*%
%ADD41R,1.9000X2.5000*%
%ADD42C,1.6000*%
%ADD43R,1.6000X1.6000*%
%ADD44R,1.5240X1.5240*%
%ADD45C,1.5240*%
%ADD46C,0.6096*%

%LPD*%
D10*
X4228315Y13246884D02*
G01*
X4128315Y13246884D01*
X4178302Y13346884D02*
G01*
X4178302Y13296897D01*
X4128315Y13346884D02*
G01*
X4178302Y13346884D01*
X4178302Y13346884D02*
G01*
X4228315Y13346884D01*
X2434313Y11295707D02*
G01*
X3510003Y12371397D01*
X3510003Y12903197D01*
X2434313Y11295707D02*
G01*
X2351102Y11212497D01*
X2351102Y10993295D01*
X6970473Y8127997D02*
G01*
X6970473Y7927235D01*
X6970473Y7927235D02*
G01*
X6885790Y7927235D01*
X6707812Y8105213D01*
X3272640Y8105213D01*
X6408320Y8246463D02*
G01*
X7197778Y9035920D01*
X7463640Y9035920D01*
X7482613Y9054894D01*
X7482613Y9172724D01*
X8090816Y9780927D01*
X10279153Y9780927D01*
X10398127Y9899901D01*
X6408320Y8191497D02*
G01*
X6408320Y8246463D01*
X10488602Y9899901D02*
G01*
X10398127Y9899901D01*
X5900320Y8191497D02*
G01*
X5900320Y8246463D01*
X5900320Y8246463D02*
G01*
X6274716Y8620859D01*
X6348529Y8620859D01*
X6487670Y8760000D01*
X6487670Y8825710D01*
X7561861Y9899901D01*
X10082202Y9899901D01*
X1281254Y9998478D02*
G01*
X7442050Y9998478D01*
X1131089Y9843945D02*
G01*
X1173863Y9801171D01*
X1224688Y9801171D01*
X1131089Y9905641D02*
G01*
X1131089Y9843945D01*
X1391008Y9921491D02*
G01*
X1246939Y9921491D01*
X1231089Y9905641D01*
X8909052Y8253346D02*
G01*
X9019440Y8142958D01*
X9019440Y8013748D01*
X8887284Y7881592D01*
X6724246Y7881592D01*
X6565953Y8039884D01*
X2802892Y8039884D01*
X8833512Y9962614D02*
G01*
X7566510Y9962614D01*
X7464529Y10064595D01*
X1161468Y10064595D01*
X1054889Y9958016D01*
X1054889Y9879403D01*
X1181077Y9988064D02*
G01*
X1181077Y9905641D01*
X7891198Y7194623D02*
G01*
X2349756Y7194623D01*
X9710320Y8246463D02*
G01*
X9710193Y8246590D01*
X9354847Y8246590D01*
X9354720Y8246463D01*
X9354720Y8191497D02*
G01*
X9354720Y8246463D01*
X9710320Y8208871D02*
G01*
X9710320Y8246463D01*
X9710320Y8208871D02*
G01*
X9710320Y8191497D01*
X9256295Y11950697D02*
G01*
X9127060Y11821462D01*
X7988531Y11821462D01*
X7871995Y11937997D01*
X8308850Y8053448D02*
G01*
X8204558Y7949156D01*
X8019138Y7949156D01*
X7999961Y7968333D01*
X7999961Y8296856D01*
X8153859Y8450755D01*
X9150428Y8450755D01*
X9150428Y8450755D02*
G01*
X9354720Y8246463D01*
X9268995Y9143997D02*
G01*
X9237525Y9143997D01*
X7871995Y9143997D02*
G01*
X7990842Y9262844D01*
X9118678Y9262844D01*
X9237525Y9143997D01*
X9237525Y9143997D02*
G01*
X9237525Y8537851D01*
X9150428Y8450755D01*
X2237005Y9778997D02*
G01*
X2279957Y9778997D01*
X2142162Y11525704D02*
G01*
X1854964Y11812902D01*
X1780491Y11812902D01*
X2279957Y9778997D02*
G01*
X2321308Y9820348D01*
X2622323Y9820348D01*
X2401115Y12009295D02*
G01*
X2401115Y12138124D01*
X2401089Y12138124D01*
X1503352Y9794770D02*
G01*
X1512572Y9803991D01*
X1576199Y9803991D01*
X7871995Y11175997D02*
G01*
X7409030Y10713031D01*
X2565631Y10713031D01*
X2501115Y10648515D01*
X2501115Y10571299D02*
G01*
X2501115Y10648515D01*
X2501115Y10648515D02*
G01*
X2142162Y11007468D01*
X2142162Y11525704D01*
X1780491Y11747903D02*
G01*
X1702285Y11747903D01*
X1649249Y11800939D01*
X1649249Y11888696D01*
X1769849Y12009295D01*
X2351102Y12009295D01*
X9710320Y7937497D02*
G01*
X9710320Y7992463D01*
X9354720Y7937497D02*
G01*
X9354720Y7992463D01*
X9710320Y7992463D02*
G01*
X9710193Y7992590D01*
X9354847Y7992590D01*
X9354720Y7992463D01*
X9354720Y7992463D02*
G01*
X8979258Y8367925D01*
X8423429Y8367925D01*
X8308850Y8253346D01*
X9506308Y11950697D02*
G01*
X9390128Y12066877D01*
X8250887Y12066877D01*
X8122008Y11937997D01*
X2551102Y10571299D02*
G01*
X2551102Y10494794D01*
X2551102Y10494794D02*
G01*
X7799910Y10494794D01*
X8122008Y10172697D01*
X2551102Y10494794D02*
G01*
X2511960Y10455653D01*
X2507922Y10455653D01*
X2507922Y10455653D02*
G01*
X2336650Y10455653D01*
X2045185Y10747118D01*
X2045185Y11564515D01*
X1861797Y11747903D01*
X1780491Y11747903D01*
X2507922Y10443664D02*
G01*
X2507922Y10455653D01*
X2183996Y9700994D02*
G01*
X2201191Y9683798D01*
X2474521Y9683798D01*
X8122008Y9143997D02*
G01*
X8298690Y9143997D01*
X8329373Y9174680D01*
X8600163Y12839595D02*
G01*
X8435164Y12674597D01*
X7465087Y12674597D01*
X7300089Y12509599D01*
X8703185Y12839595D02*
G01*
X8600163Y12839595D01*
X7197194Y12509599D02*
G01*
X7300089Y12509599D01*
X7687185Y12839595D02*
G01*
X7362421Y12839595D01*
X7094171Y12571346D01*
X7094171Y12438987D01*
X7101563Y12431595D01*
X7295923Y12431595D01*
X7747002Y11980517D01*
X7747002Y11896112D01*
X8244639Y11398476D01*
X8944231Y11398476D01*
X9131302Y11211405D01*
X9131302Y11144907D01*
X10075776Y10200434D01*
X10134475Y10200434D01*
X10288602Y10046307D01*
X10288602Y9994897D01*
X2267308Y12769110D02*
G01*
X2267308Y13022069D01*
X3221001Y12903197D02*
G01*
X3133524Y12903197D01*
X3154834Y13500097D02*
G01*
X2811249Y13500097D01*
X2780261Y13469109D01*
X2691284Y13469109D02*
G01*
X2691284Y13022069D01*
X2602308Y13469109D02*
G01*
X2691284Y13469109D01*
X2691284Y13469109D02*
G01*
X2780261Y13469109D01*
X3133524Y12903197D02*
G01*
X3014652Y13022069D01*
X2691284Y13022069D01*
X2691284Y13022069D02*
G01*
X2267308Y13022069D01*
X2017295Y13022069D02*
G01*
X2267308Y13022069D01*
X2017295Y12769110D02*
G01*
X2017295Y13022069D01*
X2267308Y12769110D02*
G01*
X2267308Y13022069D01*
X6228463Y12877797D02*
G01*
X7009869Y12096391D01*
X7463614Y12096391D01*
X7622009Y11937997D01*
X6075479Y12877797D02*
G01*
X6228463Y12877797D01*
X2102487Y9728984D02*
G01*
X2106018Y9728984D01*
X2080999Y9728984D02*
G01*
X2102487Y9728984D01*
X2106018Y9728984D02*
G01*
X2123975Y9728984D01*
X2123975Y9728984D02*
G01*
X2183996Y9789005D01*
X2183996Y9857000D01*
X1804164Y9754003D02*
G01*
X1804164Y9803991D01*
X1751205Y9754003D02*
G01*
X1804164Y9754003D01*
X1751205Y9803991D02*
G01*
X1804164Y9803991D01*
X2451102Y10884202D02*
G01*
X2451102Y10993295D01*
X2451102Y10884202D02*
G01*
X2333678Y10884202D01*
X2299743Y10918136D01*
X2299743Y11703936D01*
X2451102Y11855295D01*
X2451102Y12009295D01*
X6494884Y7992463D02*
G01*
X6494757Y7992590D01*
X5987011Y7992590D01*
X5986884Y7992463D01*
X5986884Y7937497D02*
G01*
X5986884Y7992463D01*
X6494884Y7964980D02*
G01*
X6494884Y7992463D01*
X6494884Y7964980D02*
G01*
X6494884Y7937497D01*
X6561990Y7619997D02*
G01*
X6509031Y7619997D01*
X9796884Y7937497D02*
G01*
X9796884Y7992463D01*
X9441284Y7937497D02*
G01*
X9441284Y7882531D01*
X9796884Y7937497D02*
G01*
X9796884Y7882531D01*
X9441284Y8191497D02*
G01*
X9441284Y8136531D01*
X9441284Y8136531D02*
G01*
X9441284Y8136404D01*
X9796884Y7992463D02*
G01*
X9652942Y8136404D01*
X9441284Y8136404D01*
X9441284Y8136404D02*
G01*
X9298383Y8136404D01*
X9024825Y8409962D01*
X8265568Y8409962D01*
X8108952Y8253346D01*
X10355684Y10477497D02*
G01*
X10355684Y10532463D01*
X10050884Y10477497D02*
G01*
X10050884Y10532463D01*
X10050884Y10985497D02*
G01*
X10050884Y10930531D01*
X10330334Y10930404D02*
G01*
X10330334Y10532590D01*
X10355684Y10930531D02*
G01*
X10355557Y10930404D01*
X10330334Y10930404D01*
X10330334Y10930404D02*
G01*
X10051011Y10930404D01*
X10050884Y10930531D01*
X10355684Y10532463D02*
G01*
X10355557Y10532590D01*
X10330334Y10532590D01*
X10330334Y10532590D02*
G01*
X10051011Y10532590D01*
X10050884Y10532463D01*
X10355684Y11493497D02*
G01*
X10355684Y11548463D01*
X10050884Y11493497D02*
G01*
X10050884Y11548463D01*
X10355684Y11988797D02*
G01*
X10355684Y11933831D01*
X10038184Y11988797D02*
G01*
X10038184Y11933831D01*
X10330334Y11933704D02*
G01*
X10330334Y11548590D01*
X10355684Y11933831D02*
G01*
X10355557Y11933704D01*
X10330334Y11933704D01*
X10330334Y11933704D02*
G01*
X10038311Y11933704D01*
X10038184Y11933831D01*
X10355684Y11548463D02*
G01*
X10355557Y11548590D01*
X10330334Y11548590D01*
X10330334Y11548590D02*
G01*
X10051011Y11548590D01*
X10050884Y11548463D01*
X7622009Y9143997D02*
G01*
X7730086Y9035920D01*
X8910932Y9035920D01*
X9019009Y9143997D01*
X6561990Y7353297D02*
G01*
X6561990Y7619997D01*
X6053990Y7607297D02*
G01*
X6053990Y7662263D01*
X6494884Y7675547D02*
G01*
X6067275Y7675547D01*
X6053990Y7662263D01*
X6494884Y7675547D02*
G01*
X6494884Y7634145D01*
X6509031Y7619997D01*
X9441284Y7882531D02*
G01*
X9441411Y7882404D01*
X9796757Y7882404D01*
X9796884Y7882531D01*
X6494884Y7937497D02*
G01*
X6494884Y7839732D01*
X6494884Y7839732D02*
G01*
X6494884Y7675547D01*
X6494884Y7839732D02*
G01*
X9398485Y7839732D01*
X9441284Y7882531D01*
X1735990Y7416797D02*
G01*
X1683031Y7416797D01*
X1227990Y7429497D02*
G01*
X1227990Y7484463D01*
X1735990Y7823197D02*
G01*
X1683031Y7823197D01*
X1228117Y7484590D02*
G01*
X1228117Y7577604D01*
X1227990Y7577731D01*
X1683031Y7416797D02*
G01*
X1615239Y7484590D01*
X1228117Y7484590D01*
X1228117Y7484590D02*
G01*
X1227990Y7484463D01*
X1227990Y7632697D02*
G01*
X1227990Y7605214D01*
X1227990Y7605214D02*
G01*
X1227990Y7577731D01*
X1227990Y7605214D02*
G01*
X1228117Y7605341D01*
X1228117Y7768104D01*
X1683031Y7823197D02*
G01*
X1627939Y7768104D01*
X1228117Y7768104D01*
X1228117Y7768104D02*
G01*
X1227990Y7768231D01*
X1227990Y7795714D02*
G01*
X1227990Y7768231D01*
X1227990Y7795714D02*
G01*
X1227990Y7823197D01*
X1227990Y7823197D02*
G01*
X1227990Y7878163D01*
X1227990Y7878163D02*
G01*
X1300025Y7950197D01*
X1300025Y8191497D01*
X1608990Y8191497D02*
G01*
X1300025Y8191497D01*
X1300025Y8191497D02*
G01*
X1227990Y8263531D01*
X1989990Y8318497D02*
G01*
X1681025Y8318497D01*
X1608990Y8246463D01*
X1608990Y8191497D02*
G01*
X1608990Y8246463D01*
X10050884Y11548463D02*
G01*
X9970823Y11628523D01*
X9006309Y11628523D01*
X2551102Y10993295D02*
G01*
X2551102Y10912929D01*
X2522374Y10884202D01*
X2451102Y10884202D01*
X9006309Y11175997D02*
G01*
X8893863Y11288443D01*
X7734454Y11288443D01*
X7622009Y11175997D01*
X2551102Y10993295D02*
G01*
X5716526Y10993295D01*
X6007305Y11284074D01*
X7513932Y11284074D01*
X7622009Y11175997D01*
X1307289Y9729391D02*
G01*
X1368986Y9729391D01*
X10355684Y10958014D02*
G01*
X10355684Y10930531D01*
X10355684Y10958014D02*
G01*
X10355684Y10985497D01*
X10355684Y10985497D02*
G01*
X10355684Y11493497D01*
X1227990Y7429497D02*
G01*
X1227990Y7374531D01*
X6053990Y7353297D02*
G01*
X6053990Y7607297D01*
X6001031Y7353297D02*
G01*
X5947133Y7299398D01*
X1303124Y7299398D01*
X1227990Y7374531D01*
X6053990Y7353297D02*
G01*
X6001031Y7353297D01*
X1227990Y8318497D02*
G01*
X1227990Y8291014D01*
X1227990Y8291014D02*
G01*
X1227990Y8263531D01*
X1131089Y9703153D02*
G01*
X1131089Y9651997D01*
X2106018Y9728984D02*
G01*
X2134008Y9700994D01*
X2183996Y9857000D02*
G01*
X2183996Y9899952D01*
X1804164Y9879733D02*
G01*
X1833653Y9909223D01*
X2174725Y9909223D01*
X2183996Y9899952D01*
X1804164Y9803991D02*
G01*
X1804164Y9879733D01*
X1804164Y9879733D02*
G01*
X1764337Y9919561D01*
X1545338Y9919561D01*
X1465557Y9839779D01*
X1465557Y9839779D02*
G01*
X1368986Y9743208D01*
X1368986Y9729391D01*
X1465557Y9839779D02*
G01*
X1451815Y9853521D01*
X1227990Y8291014D02*
G01*
X1031191Y8487813D01*
X1031191Y9342168D01*
X1218008Y9528985D01*
X1131089Y9651997D02*
G01*
X1131089Y9615904D01*
X1218008Y9528985D01*
X1218008Y9528985D02*
G01*
X1453111Y9528985D01*
X6470144Y13576297D02*
G01*
X6470144Y13068297D01*
X7570193Y8349206D02*
G01*
X7583731Y8335667D01*
X7583731Y8127997D01*
X6470144Y13068297D02*
G01*
X6470144Y12950873D01*
X6487060Y12933956D01*
X7774002Y7607297D02*
G01*
X7656197Y7607297D01*
X2401115Y10993295D02*
G01*
X2401115Y11078563D01*
X2755242Y11432689D01*
X3927985Y11432689D01*
X3927985Y11432689D02*
G01*
X3927985Y13114246D01*
X3968904Y13155165D01*
X4050210Y13155165D01*
X4114802Y13019986D02*
G01*
X4050210Y13084578D01*
X4050210Y13155165D01*
X4050210Y13155165D02*
G01*
X4050210Y13509216D01*
X4114802Y13573808D01*
X3927985Y11432689D02*
G01*
X4154401Y11206274D01*
X5682719Y11206274D01*
X5865649Y11389205D01*
X6487060Y11389205D01*
X5742002Y13588997D02*
G01*
X5643526Y13588997D01*
X5643526Y13588997D02*
G01*
X5612005Y13620518D01*
X4452546Y13620518D01*
X3987802Y13573808D02*
G01*
X3911577Y13497582D01*
X5942002Y13588997D02*
G01*
X5942002Y13493544D01*
X5942002Y13493544D02*
G01*
X5732655Y13284197D01*
X5081805Y13284197D01*
X4958844Y13284197D02*
G01*
X4554374Y12879727D01*
X4089351Y12879727D01*
X3987802Y12981277D01*
X3987802Y13019986D01*
X5081805Y13284197D02*
G01*
X4958844Y13284197D01*
X6362677Y8788397D02*
G01*
X6085867Y8511588D01*
X5323867Y8511588D01*
X5092677Y8280397D01*
X5092677Y8280397D02*
G01*
X4971011Y8158731D01*
X3677643Y8158731D01*
X3568677Y8267697D01*
X1982802Y9245597D02*
G01*
X1982802Y9150144D01*
X8110298Y12839595D02*
G01*
X8032295Y12917599D01*
X7378092Y12917599D01*
X7300089Y12839595D01*
X7197194Y12839595D02*
G01*
X7300089Y12839595D01*
X8161759Y12839595D02*
G01*
X8110298Y12839595D01*
X10456191Y12839697D02*
G01*
X10328226Y12839697D01*
X10016213Y12839697D02*
G01*
X10328226Y12839697D01*
X10456191Y13334997D02*
G01*
X10328226Y13334997D01*
X10016213Y12839697D02*
G01*
X10016213Y12967662D01*
X3568677Y9283697D02*
G01*
X3434996Y9150017D01*
X1982929Y9150017D01*
X1982929Y9150017D02*
G01*
X1982802Y9150144D01*
X1982802Y8737597D02*
G01*
X1982802Y8833076D01*
X1131902Y8737597D02*
G01*
X1131902Y9070820D01*
X1131902Y9070820D02*
G01*
X1131902Y9245597D01*
X1982802Y8833076D02*
G01*
X1982802Y9070820D01*
X1982929Y9150017D02*
G01*
X1982929Y9070947D01*
X1982802Y9070820D01*
X1982802Y9070820D02*
G01*
X1131902Y9070820D01*
X5998999Y13107794D02*
G01*
X6075479Y13107794D01*
X6228463Y13107794D02*
G01*
X6496662Y12839595D01*
X7197194Y12839595D01*
X6075479Y13107794D02*
G01*
X6228463Y13107794D01*
X1780491Y11877901D02*
G01*
X2389634Y11877901D01*
X8161759Y12839595D02*
G01*
X8213194Y12839595D01*
X8316089Y12839595D02*
G01*
X8466178Y12989684D01*
X10016213Y12989684D01*
X10328226Y13334997D02*
G01*
X10016213Y13022983D01*
X10016213Y12989684D01*
X10016213Y12989684D02*
G01*
X10016213Y12967662D01*
X8213194Y12839595D02*
G01*
X8316089Y12839595D01*
X5998999Y13107794D02*
G01*
X5960772Y13107794D01*
X5960772Y13107794D02*
G01*
X5960772Y13013357D01*
X5092677Y12145261D01*
X5092677Y11315697D01*
X4794760Y13284197D02*
G01*
X4947820Y13437257D01*
X5774286Y13437257D01*
X5840580Y13503551D01*
X5840580Y13677033D01*
X5848123Y13684577D01*
X6024145Y13684577D01*
X6049799Y13658923D01*
X6049799Y13318030D01*
X5922520Y13190750D01*
X5922520Y13107794D01*
X4671799Y13284197D02*
G01*
X4794760Y13284197D01*
X6075479Y13107794D02*
G01*
X5922520Y13107794D01*
X6228463Y12647800D02*
G01*
X6938266Y11937997D01*
X7371996Y11937997D01*
X6075479Y12647800D02*
G01*
X6228463Y12647800D01*
X1688696Y9691494D02*
G01*
X1688696Y9638535D01*
X2501115Y10993295D02*
G01*
X2501115Y11083389D01*
X2746123Y11328397D01*
X3305990Y11328397D01*
X1140513Y10575211D02*
G01*
X1140513Y11032893D01*
X1140513Y11032893D02*
G01*
X1219532Y11032893D01*
X1261645Y11075007D01*
X1261645Y11518313D01*
X1227051Y11552908D01*
X1183794Y11552908D01*
X1780491Y11552908D02*
G01*
X1183794Y11552908D01*
X1183794Y11552908D02*
G01*
X1140513Y11552908D01*
X1140513Y11552908D02*
G01*
X1140513Y11617906D01*
X1140513Y11617906D02*
G01*
X1140513Y11682905D01*
X1140513Y11682905D02*
G01*
X1140513Y11747903D01*
X1140513Y11747903D02*
G01*
X1140513Y11812927D01*
X1140513Y11812927D02*
G01*
X1140513Y11877926D01*
X1140513Y10575211D02*
G01*
X1341909Y10575211D01*
X1341909Y10575211D02*
G01*
X1604723Y10312397D01*
X3305990Y10312397D01*
X8183603Y13367865D02*
G01*
X8183476Y13367992D01*
X7167730Y13367992D01*
X7167603Y13367865D01*
X8183603Y13302409D02*
G01*
X8183603Y13367865D01*
X7167603Y13302409D02*
G01*
X7167603Y13335149D01*
X7167603Y13335149D02*
G01*
X7167603Y13367865D01*
X7167603Y13335149D02*
G01*
X7132017Y13335149D01*
X6890870Y13576297D01*
X6788660Y13576297D02*
G01*
X6890870Y13576297D01*
X6216855Y10820397D02*
G01*
X6216855Y10846432D01*
X6546420Y11175997D01*
X7371996Y11175997D01*
X6112690Y10820397D02*
G01*
X6216855Y10820397D01*
X4725824Y9283697D02*
G01*
X4620795Y9388726D01*
X3501849Y9388726D01*
X3422855Y9309732D01*
X3422855Y9283697D01*
X4829990Y9283697D02*
G01*
X4725824Y9283697D01*
X3370785Y9283697D02*
G01*
X3422855Y9283697D01*
X3370785Y9283697D02*
G01*
X3318690Y9283697D01*
X3318690Y9283697D02*
G01*
X2319378Y9283697D01*
X2281278Y9245597D01*
X2182802Y9245597D02*
G01*
X2281278Y9245597D01*
X10488602Y10089893D02*
G01*
X10398127Y10089893D01*
X10398127Y10089893D02*
G01*
X10398127Y9960124D01*
X10359443Y9921440D01*
X10224772Y9921440D01*
X10172677Y9973536D01*
X10172677Y10089893D01*
X8648346Y10159997D02*
G01*
X8545502Y10057152D01*
X7568516Y10057152D01*
X7479972Y10145697D01*
X7479972Y10172697D01*
X8756296Y10159997D02*
G01*
X8648346Y10159997D01*
X7371996Y10172697D02*
G01*
X7479972Y10172697D01*
X6112690Y8788397D02*
G01*
X5428820Y8788397D01*
X4946855Y8306432D01*
X4946855Y8280397D01*
X4842690Y8280397D02*
G01*
X4946855Y8280397D01*
X7687185Y12509599D02*
G01*
X7790207Y12509599D01*
X9745271Y12822603D02*
G01*
X9597316Y12822603D01*
X9888247Y13334997D02*
G01*
X9849030Y13374215D01*
X8189953Y13374215D01*
X8183603Y13367865D01*
X1517296Y13022069D02*
G01*
X1767309Y13022069D01*
X1767309Y12769110D02*
G01*
X1767309Y13022069D01*
X1517296Y12769110D02*
G01*
X1517296Y12895602D01*
X1517296Y12895602D02*
G01*
X1517296Y13022069D01*
X1517296Y12895602D02*
G01*
X1140513Y12518819D01*
X1140513Y11877926D01*
X7167603Y13302409D02*
G01*
X7167603Y13236928D01*
X10016213Y13334997D02*
G01*
X9888247Y13334997D01*
X6138014Y7353297D02*
G01*
X6138014Y7607297D01*
X6646014Y7298331D02*
G01*
X6636539Y7288857D01*
X6255412Y7288857D01*
X6190973Y7353297D01*
X6646014Y7353297D02*
G01*
X6646014Y7298331D01*
X6138014Y7353297D02*
G01*
X6190973Y7353297D01*
X6646014Y7494572D02*
G01*
X7956730Y7494572D01*
X7974002Y7511844D01*
X6646014Y7619997D02*
G01*
X6646014Y7494572D01*
X6646014Y7494572D02*
G01*
X6646014Y7353297D01*
X1820014Y7361831D02*
G01*
X1806272Y7348090D01*
X1446380Y7348090D01*
X1364973Y7429497D01*
X1312014Y7429497D02*
G01*
X1364973Y7429497D01*
X1312014Y7823197D02*
G01*
X1364973Y7823197D01*
X1820014Y7389314D02*
G01*
X1820014Y7361831D01*
X1820014Y7389314D02*
G01*
X1820014Y7416797D01*
X1820014Y7416797D02*
G01*
X1820014Y7471763D01*
X1820014Y7840571D02*
G01*
X1820014Y7878163D01*
X1820014Y7840571D02*
G01*
X1820014Y7823197D01*
X1820014Y7823197D02*
G01*
X1820014Y7768231D01*
X2074014Y8318497D02*
G01*
X2074014Y8263531D01*
X1820014Y7878163D02*
G01*
X1806247Y7891929D01*
X1806247Y7891929D02*
G01*
X1433705Y7891929D01*
X1364973Y7823197D01*
X1806247Y8191497D02*
G01*
X1806247Y7891929D01*
X1693014Y8191497D02*
G01*
X1806247Y8191497D01*
X1806247Y8191497D02*
G01*
X2001979Y8191497D01*
X2074014Y8263531D01*
X1312014Y8318497D02*
G01*
X1312014Y8373463D01*
X7974002Y7607297D02*
G01*
X7974002Y7559570D01*
X7974002Y7559570D02*
G01*
X7974002Y7511844D01*
X7974002Y7559570D02*
G01*
X8091528Y7559570D01*
X1820014Y7768231D02*
G01*
X1671779Y7619997D01*
X1820014Y7471763D02*
G01*
X1671779Y7619997D01*
X1671779Y7619997D02*
G01*
X1659079Y7632697D01*
X1312014Y7632697D01*
X2074014Y8318497D02*
G01*
X2126973Y8318497D01*
X1312014Y8373463D02*
G01*
X1331902Y8393351D01*
X1331902Y8565487D01*
X1331902Y8565487D02*
G01*
X1331902Y8737597D01*
X1331902Y8565487D02*
G01*
X2126973Y8565487D01*
X2126973Y8565487D02*
G01*
X2182802Y8621316D01*
X2182802Y8737597D01*
X1331902Y9245597D02*
G01*
X1331902Y9341076D01*
X2182802Y9245597D02*
G01*
X2182802Y9341076D01*
X7167603Y13236928D02*
G01*
X6998972Y13068297D01*
X6788660Y13068297D01*
X2080999Y9828984D02*
G01*
X2038047Y9828984D01*
X1767309Y12769110D02*
G01*
X1767309Y12516152D01*
X2451102Y11587299D02*
G01*
X2451102Y11685191D01*
X2437081Y11699212D01*
X2437081Y11699212D02*
G01*
X2379601Y11699212D01*
X2351102Y11670713D01*
X2351102Y11587299D01*
X10119819Y10089893D02*
G01*
X10172677Y10089893D01*
X10119819Y10089893D02*
G01*
X10082202Y10089893D01*
X8756296Y10159997D02*
G01*
X8864272Y10159997D01*
X6788660Y13576297D02*
G01*
X6686450Y13576297D01*
X4368802Y13621560D02*
G01*
X4486277Y13739035D01*
X6523713Y13739035D01*
X6686450Y13576297D01*
X4368802Y13573808D02*
G01*
X4368802Y13621560D01*
X4368802Y13621560D02*
G01*
X4279978Y13710384D01*
X3967609Y13710384D01*
X3757322Y13500097D01*
X2126973Y8565487D02*
G01*
X2126973Y8318497D01*
X3318690Y8267697D02*
G01*
X3214524Y8267697D01*
X2126973Y8318497D02*
G01*
X3163724Y8318497D01*
X3214524Y8267697D01*
X3626970Y13500097D02*
G01*
X3692146Y13500097D01*
X3692146Y13500097D02*
G01*
X3757322Y13500097D01*
X2437081Y11699212D02*
G01*
X2593190Y11855320D01*
X2593190Y12379246D01*
X3692146Y13500097D02*
G01*
X3422398Y13230349D01*
X3422398Y12918437D01*
X2883207Y12379246D01*
X2593190Y12379246D01*
X2593190Y12379246D02*
G01*
X1904215Y12379246D01*
X1767309Y12516152D01*
X2038047Y9828984D02*
G01*
X1847471Y9638408D01*
X1847471Y9638408D02*
G01*
X1847471Y9341203D01*
X1331902Y9341076D02*
G01*
X1332029Y9341203D01*
X1847471Y9341203D01*
X1847471Y9341203D02*
G01*
X2182675Y9341203D01*
X2182802Y9341076D01*
X10082202Y10089893D02*
G01*
X9708695Y10089893D01*
X9670036Y10051234D01*
X8946034Y10051234D01*
X8864272Y10132997D01*
X8864272Y10159997D01*
X7790207Y12509599D02*
G01*
X7897014Y12616406D01*
X8827721Y12616406D01*
X8827721Y12616406D02*
G01*
X9391119Y12616406D01*
X9597316Y12822603D01*
X2237005Y9728984D02*
G01*
X2369441Y9728984D01*
X2401470Y9761014D01*
X3305990Y9761014D01*
X1181077Y9703153D02*
G01*
X1181077Y9641431D01*
X1688696Y9638535D02*
G01*
X1687807Y9637646D01*
X1184861Y9637646D01*
X1181077Y9641431D01*
X1688696Y9638535D02*
G01*
X1688823Y9638408D01*
X1847471Y9638408D01*
X1121895Y10575211D02*
G01*
X1140513Y10575211D01*
X1121895Y10575211D02*
G01*
X1121895Y10405209D01*
X9343189Y12815415D02*
G01*
X9180476Y12815415D01*
X9173288Y12822603D01*
X9025308Y12822603D02*
G01*
X9173288Y12822603D01*
X9882202Y9994897D02*
G01*
X9771992Y9994897D01*
D11*
G01*
X9025318Y12822605D03*
G01*
X9745281Y12822605D03*
G01*
X9745256Y13542568D03*
G01*
X9025318Y13542594D03*
D12*
G01*
X1331902Y9245600D03*
G01*
X1131897Y9245600D03*
G01*
X2182802Y9245600D03*
G01*
X1982797Y9245600D03*
G01*
X1331902Y8737600D03*
G01*
X1131897Y8737600D03*
G01*
X2182802Y8737600D03*
G01*
X1982797Y8737600D03*
G01*
X5942002Y13589000D03*
G01*
X5741997Y13589000D03*
G01*
X7974002Y7607300D03*
G01*
X7773997Y7607300D03*
D13*
G01*
X1312011Y8318500D03*
G01*
X1227988Y8318500D03*
G01*
X2074011Y8318500D03*
G01*
X1989988Y8318500D03*
G01*
X1693011Y8191500D03*
G01*
X1608988Y8191500D03*
G01*
X1312011Y7823200D03*
G01*
X1227988Y7823200D03*
G01*
X1312011Y7632700D03*
G01*
X1227988Y7632700D03*
G01*
X1312011Y7429500D03*
G01*
X1227988Y7429500D03*
G01*
X1820011Y7823200D03*
G01*
X1735988Y7823200D03*
G01*
X1820011Y7416800D03*
G01*
X1735988Y7416800D03*
G01*
X6138011Y7607300D03*
G01*
X6053988Y7607300D03*
G01*
X6646011Y7620000D03*
G01*
X6561988Y7620000D03*
G01*
X6138011Y7353300D03*
G01*
X6053988Y7353300D03*
G01*
X6646011Y7353300D03*
G01*
X6561988Y7353300D03*
D14*
G01*
X6788650Y13576300D03*
G01*
X6470149Y13576300D03*
G01*
X6788650Y13068300D03*
G01*
X6470149Y13068300D03*
D15*
G01*
X2267305Y12769100D03*
G01*
X2017293Y12769100D03*
G01*
X1767306Y12769100D03*
G01*
X1517294Y12769100D03*
D16*
G01*
X1182293Y13469099D03*
G01*
X2602306Y13469099D03*
D18*
G01*
X3626975Y13500100D03*
G01*
X3154824Y13500100D03*
D19*
G01*
X10456189Y13335000D03*
G01*
X10016210Y13335000D03*
G01*
X10456189Y12839700D03*
G01*
X10016210Y12839700D03*
D20*
G01*
X7687205Y12839595D03*
G01*
X7687205Y12509593D03*
D21*
G01*
X7197204Y12509593D03*
G01*
X7197204Y12839595D03*
D20*
G01*
X8703205Y12839595D03*
G01*
X8703205Y12509593D03*
D21*
G01*
X8213204Y12509593D03*
G01*
X8213204Y12839595D03*
D22*
G01*
X10082199Y9899904D03*
G01*
X10082199Y10089895D03*
G01*
X9882200Y9994900D03*
G01*
X10488599Y9899904D03*
G01*
X10488599Y10089895D03*
G01*
X10288600Y9994900D03*
D23*
G01*
X10038182Y11988800D03*
G01*
X9951617Y11988800D03*
G01*
X10355682Y11988800D03*
G01*
X10269117Y11988800D03*
G01*
X10050882Y11493500D03*
G01*
X9964317Y11493500D03*
G01*
X10355682Y11493500D03*
G01*
X10269117Y11493500D03*
G01*
X10050882Y10985500D03*
G01*
X9964317Y10985500D03*
G01*
X10355682Y10985500D03*
G01*
X10269117Y10985500D03*
G01*
X10050882Y10477500D03*
G01*
X9964317Y10477500D03*
G01*
X10355682Y10477500D03*
G01*
X10269117Y10477500D03*
G01*
X9441282Y8191500D03*
G01*
X9354717Y8191500D03*
G01*
X9441282Y7937500D03*
G01*
X9354717Y7937500D03*
G01*
X9796882Y8191500D03*
G01*
X9710317Y8191500D03*
G01*
X9796882Y7937500D03*
G01*
X9710317Y7937500D03*
G01*
X5986882Y8191500D03*
G01*
X5900317Y8191500D03*
G01*
X6494882Y8191500D03*
G01*
X6408317Y8191500D03*
G01*
X5986882Y7937500D03*
G01*
X5900317Y7937500D03*
G01*
X6494882Y7937500D03*
G01*
X6408317Y7937500D03*
D24*
G01*
X7583726Y8128000D03*
G01*
X6970473Y8128000D03*
D25*
G01*
X7167600Y13672388D03*
G01*
X7767599Y13672388D03*
G01*
X7167600Y13302411D03*
G01*
X7767599Y13302411D03*
G01*
X8183600Y13672388D03*
G01*
X8783599Y13672388D03*
G01*
X8183600Y13302411D03*
G01*
X8783599Y13302411D03*
D26*
G01*
X1140510Y11877916D03*
G01*
X1140510Y11812917D03*
G01*
X1140510Y11747893D03*
G01*
X1140510Y11682895D03*
G01*
X1140510Y11617896D03*
G01*
X1140510Y11552897D03*
G01*
X1140510Y11487899D03*
G01*
X1140510Y11422900D03*
G01*
X1140510Y11357902D03*
G01*
X1140510Y11292903D03*
G01*
X1140510Y11227904D03*
G01*
X1140510Y11162906D03*
G01*
X1140510Y11097907D03*
G01*
X1140510Y11032883D03*
G01*
X1780489Y11032883D03*
G01*
X1780489Y11097907D03*
G01*
X1780489Y11162906D03*
G01*
X1780489Y11227904D03*
G01*
X1780489Y11292903D03*
G01*
X1780489Y11357902D03*
G01*
X1780489Y11422900D03*
G01*
X1780489Y11487899D03*
G01*
X1780489Y11552897D03*
G01*
X1780489Y11617896D03*
G01*
X1780489Y11682895D03*
G01*
X1780489Y11747893D03*
G01*
X1780489Y11812892D03*
G01*
X1780489Y11877890D03*
D27*
G01*
X2351100Y11587302D03*
G01*
X2401112Y11587302D03*
G01*
X2451100Y11587302D03*
G01*
X2501112Y11587302D03*
G01*
X2551099Y11587302D03*
G01*
X2351100Y12009297D03*
G01*
X2401112Y12009297D03*
G01*
X2451100Y12009297D03*
G01*
X2501112Y12009297D03*
G01*
X2551099Y12009297D03*
G01*
X2351100Y10571302D03*
G01*
X2401112Y10571302D03*
G01*
X2451100Y10571302D03*
G01*
X2501112Y10571302D03*
G01*
X2551099Y10571302D03*
G01*
X2351100Y10993297D03*
G01*
X2401112Y10993297D03*
G01*
X2451100Y10993297D03*
G01*
X2501112Y10993297D03*
G01*
X2551099Y10993297D03*
D28*
G01*
X1054900Y9879406D03*
G01*
X1054900Y9829393D03*
G01*
X1054900Y9779406D03*
G01*
X1054900Y9729393D03*
D29*
G01*
X1131100Y9703155D03*
G01*
X1181087Y9703155D03*
G01*
X1231099Y9703155D03*
D28*
G01*
X1307299Y9729393D03*
G01*
X1307299Y9779406D03*
G01*
X1307299Y9829393D03*
G01*
X1307299Y9879406D03*
D29*
G01*
X1231099Y9905644D03*
G01*
X1181087Y9905644D03*
G01*
X1131100Y9905644D03*
D30*
G01*
X1576196Y9754006D03*
G01*
X1576196Y9803993D03*
D31*
G01*
X1588693Y9866503D03*
G01*
X1638706Y9866503D03*
G01*
X1688693Y9866503D03*
G01*
X1738706Y9866503D03*
D30*
G01*
X1751203Y9803993D03*
G01*
X1751203Y9754006D03*
D31*
G01*
X1738706Y9691496D03*
G01*
X1688693Y9691496D03*
G01*
X1638706Y9691496D03*
G01*
X1588693Y9691496D03*
D32*
G01*
X2237003Y9828987D03*
G01*
X2237003Y9779000D03*
G01*
X2237003Y9728987D03*
G01*
X2183993Y9700996D03*
G01*
X2134006Y9700996D03*
G01*
X2080996Y9728987D03*
G01*
X2080996Y9779000D03*
G01*
X2080996Y9828987D03*
G01*
X2134006Y9857003D03*
G01*
X2183993Y9857003D03*
D33*
G01*
X3987800Y13019989D03*
G01*
X4114800Y13019989D03*
G01*
X4241800Y13019989D03*
G01*
X4368800Y13019989D03*
G01*
X3987800Y13573810D03*
G01*
X4114800Y13573810D03*
G01*
X4241800Y13573810D03*
G01*
X4368800Y13573810D03*
D34*
G01*
X4178300Y13296900D03*
D35*
G01*
X6075481Y12647803D03*
G01*
X6075481Y12877800D03*
G01*
X6075481Y13107796D03*
D36*
G01*
X5481497Y12877800D03*
D37*
G01*
X3220999Y12903200D03*
G01*
X3510000Y12903200D03*
D38*
G01*
X1121900Y10405211D03*
G01*
X1341899Y10405211D03*
D39*
G01*
X1341907Y10575201D03*
D40*
G01*
X1121900Y10575213D03*
D41*
G01*
X5081803Y13284200D03*
G01*
X4671796Y13284200D03*
D42*
G01*
X8122005Y11938000D03*
G01*
X7871993Y11938000D03*
G01*
X7622006Y11938000D03*
D43*
G01*
X7371994Y11938000D03*
D42*
G01*
X8122005Y11176000D03*
G01*
X7871993Y11176000D03*
G01*
X7622006Y11176000D03*
D43*
G01*
X7371994Y11176000D03*
D42*
G01*
X8122005Y10172700D03*
G01*
X7871993Y10172700D03*
G01*
X7622006Y10172700D03*
D43*
G01*
X7371994Y10172700D03*
D42*
G01*
X8122005Y9144000D03*
G01*
X7871993Y9144000D03*
G01*
X7622006Y9144000D03*
D43*
G01*
X7371994Y9144000D03*
D42*
G01*
X9506305Y11950700D03*
G01*
X9256293Y11950700D03*
G01*
X9006306Y11950700D03*
D43*
G01*
X8756294Y11950700D03*
D42*
G01*
X9506305Y11176000D03*
G01*
X9256293Y11176000D03*
G01*
X9006306Y11176000D03*
D43*
G01*
X8756294Y11176000D03*
D42*
G01*
X9506305Y10160000D03*
G01*
X9256293Y10160000D03*
G01*
X9006306Y10160000D03*
D43*
G01*
X8756294Y10160000D03*
D42*
G01*
X9519005Y9144000D03*
G01*
X9268993Y9144000D03*
G01*
X9019006Y9144000D03*
D43*
G01*
X8768994Y9144000D03*
D44*
G01*
X8108950Y8053451D03*
D45*
G01*
X8308847Y8053451D03*
G01*
X8509000Y8053451D03*
G01*
X8708897Y8053451D03*
G01*
X8909050Y8053451D03*
G01*
X8909050Y8253348D03*
G01*
X8708897Y8253348D03*
G01*
X8509000Y8253348D03*
G01*
X8308847Y8253348D03*
G01*
X8108950Y8253348D03*
D44*
G01*
X3306000Y11328400D03*
D45*
G01*
X3555987Y11328400D03*
G01*
X3805999Y11328400D03*
D44*
G01*
X3306000Y10312400D03*
D45*
G01*
X3555987Y10312400D03*
G01*
X3805999Y10312400D03*
D44*
G01*
X3318700Y9283700D03*
D45*
G01*
X3568687Y9283700D03*
G01*
X3818699Y9283700D03*
D44*
G01*
X3318700Y8267700D03*
D45*
G01*
X3568687Y8267700D03*
G01*
X3818699Y8267700D03*
D44*
G01*
X4842700Y11315700D03*
D45*
G01*
X5092687Y11315700D03*
G01*
X5342699Y11315700D03*
D44*
G01*
X4842700Y10299700D03*
D45*
G01*
X5092687Y10299700D03*
G01*
X5342699Y10299700D03*
D44*
G01*
X4830000Y9283700D03*
D45*
G01*
X5079987Y9283700D03*
G01*
X5329999Y9283700D03*
D44*
G01*
X4842700Y8280400D03*
D45*
G01*
X5092687Y8280400D03*
G01*
X5342699Y8280400D03*
D44*
G01*
X6112700Y10820400D03*
D45*
G01*
X6362687Y10820400D03*
G01*
X6612699Y10820400D03*
D44*
G01*
X6112700Y9791700D03*
D45*
G01*
X6362687Y9791700D03*
G01*
X6612699Y9791700D03*
D44*
G01*
X6112700Y8788400D03*
D45*
G01*
X6362687Y8788400D03*
G01*
X6612699Y8788400D03*
D46*
G01*
X4228312Y13346887D03*
G01*
X4128312Y13346887D03*
G01*
X4128312Y13246887D03*
G01*
X4228312Y13246887D03*
G01*
X9343189Y12815415D03*
G01*
X9771992Y9994897D03*
G01*
X3305990Y9761014D03*
G01*
X8827721Y12616406D03*
G01*
X8091528Y7559570D03*
G01*
X2389634Y11877901D03*
G01*
X4452546Y13620518D03*
G01*
X3911577Y13497582D03*
G01*
X6487060Y11389205D03*
G01*
X7656197Y7607297D03*
G01*
X7570193Y8349206D03*
G01*
X6487060Y12933956D03*
G01*
X1451815Y9853521D03*
G01*
X1453111Y9528985D03*
G01*
X9006309Y11628523D03*
G01*
X2507922Y10443664D03*
G01*
X2474521Y9683798D03*
G01*
X8329373Y9174680D03*
G01*
X1503352Y9794770D03*
G01*
X2401089Y12138124D03*
G01*
X2142162Y11525704D03*
G01*
X2622323Y9820348D03*
G01*
X1181077Y9988064D03*
G01*
X2349756Y7194623D03*
G01*
X7891198Y7194623D03*
G01*
X8833512Y9962614D03*
G01*
X1391008Y9921491D03*
G01*
X2802892Y8039884D03*
G01*
X7442050Y9998478D03*
G01*
X1281254Y9998478D03*
G01*
X1224688Y9801171D03*
G01*
X2434313Y11295707D03*
G01*
X3272640Y8105213D03*
M02*
