G04 Layer: BottomSolderMaskLayer*
G04 EasyEDA v6.5.51, 2026-01-30 13:44:17*
G04 92297e22193845c58655d16a6a8cf733,4a48564a065a4812aa16136ba7ac55d9,10*
G04 Gerber Generator version 0.2*
G04 Scale: 100 percent, Rotated: No, Reflected: No *
G04 Dimensions in millimeters *
G04 leading zeros omitted , absolute positions ,4 integer and 5 decimal *
%FSLAX45Y45*%
%MOMM*%

%AMMACRO1*4,1,8,-0.8211,-0.8508,-0.8508,-0.821,-0.8508,0.8211,-0.8211,0.8508,0.821,0.8508,0.8508,0.8211,0.8508,-0.821,0.821,-0.8508,-0.8211,-0.8508,0*%
%AMMACRO2*4,1,8,-0.7831,-0.8128,-0.8128,-0.783,-0.8128,0.7831,-0.7831,0.8128,0.783,0.8128,0.8128,0.7831,0.8128,-0.783,0.783,-0.8128,-0.7831,-0.8128,0*%
%ADD10C,1.7016*%
%ADD11MACRO1*%
%ADD12MACRO2*%
%ADD13C,1.6256*%
%ADD14C,0.0100*%

%LPD*%
D10*
G01*
X8122005Y11938000D03*
G01*
X7871993Y11938000D03*
G01*
X7622006Y11938000D03*
D11*
G01*
X7371999Y11937989D03*
D10*
G01*
X8122005Y11176000D03*
G01*
X7871993Y11176000D03*
G01*
X7622006Y11176000D03*
D11*
G01*
X7371999Y11175989D03*
D10*
G01*
X8122005Y10172700D03*
G01*
X7871993Y10172700D03*
G01*
X7622006Y10172700D03*
D11*
G01*
X7371999Y10172689D03*
D10*
G01*
X8122005Y9144000D03*
G01*
X7871993Y9144000D03*
G01*
X7622006Y9144000D03*
D11*
G01*
X7371999Y9143989D03*
D10*
G01*
X9506305Y11950700D03*
G01*
X9256293Y11950700D03*
G01*
X9006306Y11950700D03*
D11*
G01*
X8756299Y11950689D03*
D10*
G01*
X9506305Y11176000D03*
G01*
X9256293Y11176000D03*
G01*
X9006306Y11176000D03*
D11*
G01*
X8756299Y11175989D03*
D10*
G01*
X9506305Y10160000D03*
G01*
X9256293Y10160000D03*
G01*
X9006306Y10160000D03*
D11*
G01*
X8756299Y10159989D03*
D10*
G01*
X9519005Y9144000D03*
G01*
X9268993Y9144000D03*
G01*
X9019006Y9144000D03*
D11*
G01*
X8768999Y9143989D03*
D12*
G01*
X8108950Y8053450D03*
D13*
G01*
X8308847Y8053451D03*
G01*
X8509000Y8053451D03*
G01*
X8708897Y8053451D03*
G01*
X8909050Y8053451D03*
G01*
X8909050Y8253348D03*
G01*
X8708897Y8253348D03*
G01*
X8509000Y8253348D03*
G01*
X8308847Y8253348D03*
G01*
X8108950Y8253348D03*
D12*
G01*
X3305987Y11328400D03*
D13*
G01*
X3555987Y11328400D03*
G01*
X3805999Y11328400D03*
D12*
G01*
X3305987Y10312400D03*
D13*
G01*
X3555987Y10312400D03*
G01*
X3805999Y10312400D03*
D12*
G01*
X3318687Y9283700D03*
D13*
G01*
X3568687Y9283700D03*
G01*
X3818699Y9283700D03*
D12*
G01*
X3318687Y8267700D03*
D13*
G01*
X3568687Y8267700D03*
G01*
X3818699Y8267700D03*
D12*
G01*
X4842687Y11315700D03*
D13*
G01*
X5092687Y11315700D03*
G01*
X5342699Y11315700D03*
D12*
G01*
X4842687Y10299700D03*
D13*
G01*
X5092687Y10299700D03*
G01*
X5342699Y10299700D03*
D12*
G01*
X4829987Y9283700D03*
D13*
G01*
X5079987Y9283700D03*
G01*
X5329999Y9283700D03*
D12*
G01*
X4842687Y8280400D03*
D13*
G01*
X5092687Y8280400D03*
G01*
X5342699Y8280400D03*
D12*
G01*
X6112687Y10820400D03*
D13*
G01*
X6362687Y10820400D03*
G01*
X6612699Y10820400D03*
D12*
G01*
X6112687Y9791700D03*
D13*
G01*
X6362687Y9791700D03*
G01*
X6612699Y9791700D03*
D12*
G01*
X6112687Y8788400D03*
D13*
G01*
X6362687Y8788400D03*
G01*
X6612699Y8788400D03*
M02*
