G04 Layer: TopSolderMaskLayer*
G04 EasyEDA v6.5.51, 2026-01-30 13:44:17*
G04 92297e22193845c58655d16a6a8cf733,4a48564a065a4812aa16136ba7ac55d9,10*
G04 Gerber Generator version 0.2*
G04 Scale: 100 percent, Rotated: No, Reflected: No *
G04 Dimensions in millimeters *
G04 leading zeros omitted , absolute positions ,4 integer and 5 decimal *
%FSLAX45Y45*%
%MOMM*%

%AMMACRO1*4,1,8,-1.2211,-1.2508,-1.2508,-1.2211,-1.2508,1.2211,-1.2211,1.2508,1.2211,1.2508,1.2508,1.2211,1.2508,-1.2211,1.2211,-1.2508,-1.2211,-1.2508,0*%
%AMMACRO2*4,1,8,-0.7261,-0.7258,-0.7558,-0.696,-0.7558,0.6961,-0.7261,0.7258,0.726,0.7258,0.7558,0.6961,0.7558,-0.696,0.726,-0.7258,-0.7261,-0.7258,0*%
%AMMACRO3*4,1,8,-0.2711,-0.3208,-0.3008,-0.291,-0.3008,0.2911,-0.2711,0.3208,0.271,0.3208,0.3008,0.2911,0.3008,-0.291,0.271,-0.3208,-0.2711,-0.3208,0*%
%AMMACRO4*4,1,8,-0.7635,-0.9148,-0.7933,-0.885,-0.7933,0.8851,-0.7635,0.9148,0.7635,0.9148,0.7933,0.8851,0.7933,-0.885,0.7635,-0.9148,-0.7635,-0.9148,0*%
%AMMACRO5*4,1,8,-0.6711,-2.3008,-0.7008,-2.271,-0.7008,2.2711,-0.6711,2.3008,0.671,2.3008,0.7008,2.2711,0.7008,-2.271,0.671,-2.3008,-0.6711,-2.3008,0*%
%AMMACRO6*4,1,8,-1.5211,-2.3008,-1.5508,-2.271,-1.5508,2.2711,-1.5211,2.3008,1.521,2.3008,1.5508,2.2711,1.5508,-2.271,1.521,-2.3008,-1.5211,-2.3008,0*%
%AMMACRO7*4,1,8,-1.0448,-1.147,-1.0745,-1.1172,-1.0745,1.1172,-1.0448,1.147,1.0448,1.147,1.0745,1.1172,1.0745,-1.1172,1.0448,-1.147,-1.0448,-1.147,0*%
%AMMACRO8*4,1,8,-1.0211,-1.0508,-1.0508,-1.021,-1.0508,1.0211,-1.0211,1.0508,1.021,1.0508,1.0508,1.0211,1.0508,-1.021,1.021,-1.0508,-1.0211,-1.0508,0*%
%AMMACRO9*4,1,8,-0.7716,-0.5499,-0.8014,-0.5201,-0.8014,0.5202,-0.7716,0.5499,0.7716,0.5499,0.8014,0.5202,0.8014,-0.5201,0.7716,-0.5499,-0.7716,-0.5499,0*%
%AMMACRO10*4,1,8,-0.7704,-0.5499,-0.8001,-0.5201,-0.8001,0.5202,-0.7704,0.5499,0.7703,0.5499,0.8001,0.5202,0.8001,-0.5201,0.7703,-0.5499,-0.7704,-0.5499,0*%
%AMMACRO11*4,1,8,-0.8211,-0.8508,-0.8508,-0.821,-0.8508,0.8211,-0.8211,0.8508,0.821,0.8508,0.8508,0.8211,0.8508,-0.821,0.821,-0.8508,-0.8211,-0.8508,0*%
%AMMACRO12*4,1,8,-0.7831,-0.8128,-0.8128,-0.783,-0.8128,0.7831,-0.7831,0.8128,0.783,0.8128,0.8128,0.7831,0.8128,-0.783,0.783,-0.8128,-0.7831,-0.8128,0*%
%AMMACRO13*4,1,8,-0.646,-0.4008,-0.6758,-0.371,-0.6758,0.3711,-0.646,0.4008,0.646,0.4008,0.6758,0.3711,0.6758,-0.371,0.646,-0.4008,-0.646,-0.4008,0*%
%AMMACRO14*4,1,8,-0.3039,-0.3208,-0.3336,-0.291,-0.3336,0.2911,-0.3039,0.3208,0.3038,0.3208,0.3336,0.2911,0.3336,-0.291,0.3038,-0.3208,-0.3039,-0.3208,0*%
%AMMACRO15*4,1,8,-0.6623,-1.7788,-0.6921,-1.749,-0.6921,1.749,-0.6623,1.7788,0.6623,1.7788,0.6921,1.749,0.6921,-1.749,0.6623,-1.7788,-0.6623,-1.7788,0*%
%AMMACRO16*4,1,8,-0.5211,-0.4258,-0.5508,-0.396,-0.5508,0.3961,-0.5211,0.4258,0.521,0.4258,0.5508,0.3961,0.5508,-0.396,0.521,-0.4258,-0.5211,-0.4258,0*%
%AMMACRO17*4,1,8,-0.3585,-0.1908,-0.3883,-0.161,-0.3883,0.1611,-0.3585,0.1908,0.3585,0.1908,0.3883,0.1611,0.3883,-0.161,0.3585,-0.1908,-0.3585,-0.1908,0*%
%AMMACRO18*4,1,8,-0.1611,-0.3883,-0.1908,-0.3585,-0.1908,0.3585,-0.1611,0.3883,0.161,0.3883,0.1908,0.3585,0.1908,-0.3585,0.161,-0.3883,-0.1611,-0.3883,0*%
%AMMACRO19*4,1,8,-0.2711,-0.1908,-0.3008,-0.161,-0.3008,0.1611,-0.2711,0.1908,0.271,0.1908,0.3008,0.1611,0.3008,-0.161,0.271,-0.1908,-0.2711,-0.1908,0*%
%AMMACRO20*4,1,8,-0.1611,-0.3008,-0.1908,-0.271,-0.1908,0.2711,-0.1611,0.3008,0.161,0.3008,0.1908,0.2711,0.1908,-0.271,0.161,-0.3008,-0.1611,-0.3008,0*%
%AMMACRO21*4,1,8,-0.1707,-0.2,-0.2,-0.1707,-0.2,0.1707,-0.1707,0.2,0.1707,0.2,0.2,0.1707,0.2,-0.1707,0.1707,-0.2,-0.1707,-0.2,0*%
%AMMACRO22*4,1,8,-1.2711,-0.6008,-1.3008,-0.571,-1.3008,0.5711,-1.2711,0.6008,1.271,0.6008,1.3008,0.5711,1.3008,-0.571,1.271,-0.6008,-1.2711,-0.6008,0*%
%AMMACRO23*4,1,8,-1.1911,-1.8508,-1.2208,-1.821,-1.2208,1.8211,-1.1911,1.8508,1.191,1.8508,1.2208,1.8211,1.2208,-1.821,1.191,-1.8508,-1.1911,-1.8508,0*%
%AMMACRO24*4,1,8,-0.6161,-0.9148,-0.6458,-0.885,-0.6458,0.8851,-0.6161,0.9148,0.6161,0.9148,0.6458,0.8851,0.6458,-0.885,0.6161,-0.9148,-0.6161,-0.9148,0*%
%AMMACRO25*4,1,8,-0.7211,-0.6508,-0.7508,-0.621,-0.7508,0.6211,-0.7211,0.6508,0.721,0.6508,0.7508,0.6211,0.7508,-0.621,0.721,-0.6508,-0.7211,-0.6508,0*%
%AMMACRO26*4,1,8,-0.9711,-1.3008,-1.0008,-1.271,-1.0008,1.2711,-0.9711,1.3008,0.971,1.3008,1.0008,1.2711,1.0008,-1.271,0.971,-1.3008,-0.9711,-1.3008,0*%
%ADD10MACRO1*%
%ADD11MACRO2*%
%ADD12MACRO3*%
%ADD13MACRO4*%
%ADD14MACRO5*%
%ADD15MACRO6*%
%ADD16MACRO7*%
%ADD17MACRO8*%
%ADD18MACRO9*%
%ADD19C,0.0133*%
%ADD20MACRO10*%
%ADD21C,1.7016*%
%ADD22MACRO11*%
%ADD23MACRO12*%
%ADD24C,1.6256*%
%ADD25MACRO13*%
%ADD26MACRO14*%
%ADD27MACRO15*%
%ADD28MACRO16*%
%ADD29O,1.905X0.508*%
%ADD30O,0.38161X1.721612*%
%ADD31MACRO17*%
%ADD32MACRO18*%
%ADD33MACRO19*%
%ADD34MACRO20*%
%ADD35MACRO21*%
%ADD36O,0.675589X2.139594*%
%ADD37MACRO22*%
%ADD38MACRO23*%
%ADD39MACRO24*%
%ADD40MACRO25*%
%ADD41MACRO26*%

%LPD*%
D10*
G01*
X9025318Y12822605D03*
G01*
X9745281Y12822605D03*
G01*
X9745256Y13542568D03*
G01*
X9025318Y13542594D03*
D11*
G01*
X1331902Y9245600D03*
G01*
X1131897Y9245600D03*
G01*
X2182802Y9245600D03*
G01*
X1982797Y9245600D03*
G01*
X1331902Y8737600D03*
G01*
X1131897Y8737600D03*
G01*
X2182802Y8737600D03*
G01*
X1982797Y8737600D03*
G01*
X5942002Y13589000D03*
G01*
X5741997Y13589000D03*
G01*
X7974002Y7607300D03*
G01*
X7773997Y7607300D03*
D12*
G01*
X1312000Y8318500D03*
G01*
X1227999Y8318500D03*
G01*
X2074000Y8318500D03*
G01*
X1989999Y8318500D03*
G01*
X1693000Y8191500D03*
G01*
X1608999Y8191500D03*
G01*
X1312000Y7823200D03*
G01*
X1227999Y7823200D03*
G01*
X1312000Y7632700D03*
G01*
X1227999Y7632700D03*
G01*
X1312000Y7429500D03*
G01*
X1227999Y7429500D03*
G01*
X1820000Y7823200D03*
G01*
X1735999Y7823200D03*
G01*
X1820000Y7416800D03*
G01*
X1735999Y7416800D03*
G01*
X6138000Y7607300D03*
G01*
X6053999Y7607300D03*
G01*
X6646000Y7620000D03*
G01*
X6561999Y7620000D03*
G01*
X6138000Y7353300D03*
G01*
X6053999Y7353300D03*
G01*
X6646000Y7353300D03*
G01*
X6561999Y7353300D03*
D13*
G01*
X6788650Y13576300D03*
G01*
X6470149Y13576300D03*
G01*
X6788650Y13068300D03*
G01*
X6470149Y13068300D03*
D14*
G01*
X2267300Y12769100D03*
G01*
X2017301Y12769100D03*
G01*
X1767298Y12769100D03*
G01*
X1517299Y12769100D03*
D15*
G01*
X1182300Y13469100D03*
G01*
X2602299Y13469100D03*
D16*
G01*
X3626975Y13500100D03*
G01*
X3154824Y13500100D03*
D17*
G01*
X10456199Y13335000D03*
G01*
X10016200Y13335000D03*
G01*
X10456199Y12839700D03*
G01*
X10016200Y12839700D03*
D18*
G01*
X7687205Y12839595D03*
G01*
X7687205Y12509593D03*
D20*
G01*
X7197204Y12509593D03*
G01*
X7197204Y12839595D03*
D18*
G01*
X8703205Y12839595D03*
G01*
X8703205Y12509593D03*
D20*
G01*
X8213204Y12509593D03*
G01*
X8213204Y12839595D03*
D21*
G01*
X8122005Y11938000D03*
G01*
X7871993Y11938000D03*
G01*
X7622006Y11938000D03*
D22*
G01*
X7371999Y11937989D03*
D21*
G01*
X8122005Y11176000D03*
G01*
X7871993Y11176000D03*
G01*
X7622006Y11176000D03*
D22*
G01*
X7371999Y11175989D03*
D21*
G01*
X8122005Y10172700D03*
G01*
X7871993Y10172700D03*
G01*
X7622006Y10172700D03*
D22*
G01*
X7371999Y10172689D03*
D21*
G01*
X8122005Y9144000D03*
G01*
X7871993Y9144000D03*
G01*
X7622006Y9144000D03*
D22*
G01*
X7371999Y9143989D03*
D21*
G01*
X9506305Y11950700D03*
G01*
X9256293Y11950700D03*
G01*
X9006306Y11950700D03*
D22*
G01*
X8756299Y11950689D03*
D21*
G01*
X9506305Y11176000D03*
G01*
X9256293Y11176000D03*
G01*
X9006306Y11176000D03*
D22*
G01*
X8756299Y11175989D03*
D21*
G01*
X9506305Y10160000D03*
G01*
X9256293Y10160000D03*
G01*
X9006306Y10160000D03*
D22*
G01*
X8756299Y10159989D03*
D21*
G01*
X9519005Y9144000D03*
G01*
X9268993Y9144000D03*
G01*
X9019006Y9144000D03*
D22*
G01*
X8768999Y9143989D03*
D23*
G01*
X8108950Y8053450D03*
D24*
G01*
X8308847Y8053451D03*
G01*
X8509000Y8053451D03*
G01*
X8708897Y8053451D03*
G01*
X8909050Y8053451D03*
G01*
X8909050Y8253348D03*
G01*
X8708897Y8253348D03*
G01*
X8509000Y8253348D03*
G01*
X8308847Y8253348D03*
G01*
X8108950Y8253348D03*
D25*
G01*
X10082199Y9899904D03*
G01*
X10082199Y10089894D03*
G01*
X9882200Y9994898D03*
G01*
X10488599Y9899904D03*
G01*
X10488599Y10089894D03*
G01*
X10288600Y9994898D03*
D26*
G01*
X10038182Y11988800D03*
G01*
X9951617Y11988800D03*
G01*
X10355682Y11988800D03*
G01*
X10269117Y11988800D03*
G01*
X10050882Y11493500D03*
G01*
X9964317Y11493500D03*
G01*
X10355682Y11493500D03*
G01*
X10269117Y11493500D03*
G01*
X10050882Y10985500D03*
G01*
X9964317Y10985500D03*
G01*
X10355682Y10985500D03*
G01*
X10269117Y10985500D03*
G01*
X10050882Y10477500D03*
G01*
X9964317Y10477500D03*
G01*
X10355682Y10477500D03*
G01*
X10269117Y10477500D03*
G01*
X9441282Y8191500D03*
G01*
X9354717Y8191500D03*
G01*
X9441282Y7937500D03*
G01*
X9354717Y7937500D03*
G01*
X9796882Y8191500D03*
G01*
X9710317Y8191500D03*
G01*
X9796882Y7937500D03*
G01*
X9710317Y7937500D03*
G01*
X5986882Y8191500D03*
G01*
X5900317Y8191500D03*
G01*
X6494882Y8191500D03*
G01*
X6408317Y8191500D03*
G01*
X5986882Y7937500D03*
G01*
X5900317Y7937500D03*
G01*
X6494882Y7937500D03*
G01*
X6408317Y7937500D03*
D27*
G01*
X7583726Y8128000D03*
G01*
X6970473Y8128000D03*
D23*
G01*
X3305987Y11328400D03*
D24*
G01*
X3555987Y11328400D03*
G01*
X3805999Y11328400D03*
D23*
G01*
X3305987Y10312400D03*
D24*
G01*
X3555987Y10312400D03*
G01*
X3805999Y10312400D03*
D23*
G01*
X3318687Y9283700D03*
D24*
G01*
X3568687Y9283700D03*
G01*
X3818699Y9283700D03*
D23*
G01*
X3318687Y8267700D03*
D24*
G01*
X3568687Y8267700D03*
G01*
X3818699Y8267700D03*
D23*
G01*
X4842687Y11315700D03*
D24*
G01*
X5092687Y11315700D03*
G01*
X5342699Y11315700D03*
D23*
G01*
X4842687Y10299700D03*
D24*
G01*
X5092687Y10299700D03*
G01*
X5342699Y10299700D03*
D23*
G01*
X4829987Y9283700D03*
D24*
G01*
X5079987Y9283700D03*
G01*
X5329999Y9283700D03*
D23*
G01*
X4842687Y8280400D03*
D24*
G01*
X5092687Y8280400D03*
G01*
X5342699Y8280400D03*
D23*
G01*
X6112687Y10820400D03*
D24*
G01*
X6362687Y10820400D03*
G01*
X6612699Y10820400D03*
D23*
G01*
X6112687Y9791700D03*
D24*
G01*
X6362687Y9791700D03*
G01*
X6612699Y9791700D03*
D23*
G01*
X6112687Y8788400D03*
D24*
G01*
X6362687Y8788400D03*
G01*
X6612699Y8788400D03*
D28*
G01*
X7167600Y13672395D03*
G01*
X7767599Y13672395D03*
G01*
X7167600Y13302404D03*
G01*
X7767599Y13302404D03*
G01*
X8183600Y13672395D03*
G01*
X8783599Y13672395D03*
G01*
X8183600Y13302404D03*
G01*
X8783599Y13302404D03*
D29*
G01*
X1140510Y11877916D03*
G01*
X1140510Y11812917D03*
G01*
X1140510Y11747893D03*
G01*
X1140510Y11682895D03*
G01*
X1140510Y11617896D03*
G01*
X1140510Y11552897D03*
G01*
X1140510Y11487899D03*
G01*
X1140510Y11422900D03*
G01*
X1140510Y11357902D03*
G01*
X1140510Y11292903D03*
G01*
X1140510Y11227904D03*
G01*
X1140510Y11162906D03*
G01*
X1140510Y11097907D03*
G01*
X1140510Y11032883D03*
G01*
X1780489Y11032883D03*
G01*
X1780489Y11097907D03*
G01*
X1780489Y11162906D03*
G01*
X1780489Y11227904D03*
G01*
X1780489Y11292903D03*
G01*
X1780489Y11357902D03*
G01*
X1780489Y11422900D03*
G01*
X1780489Y11487899D03*
G01*
X1780489Y11552897D03*
G01*
X1780489Y11617896D03*
G01*
X1780489Y11682895D03*
G01*
X1780489Y11747893D03*
G01*
X1780489Y11812892D03*
G01*
X1780489Y11877890D03*
D30*
G01*
X2351100Y11587302D03*
G01*
X2401112Y11587302D03*
G01*
X2451100Y11587302D03*
G01*
X2501112Y11587302D03*
G01*
X2551099Y11587302D03*
G01*
X2351100Y12009297D03*
G01*
X2401112Y12009297D03*
G01*
X2451100Y12009297D03*
G01*
X2501112Y12009297D03*
G01*
X2551099Y12009297D03*
G01*
X2351100Y10571302D03*
G01*
X2401112Y10571302D03*
G01*
X2451100Y10571302D03*
G01*
X2501112Y10571302D03*
G01*
X2551099Y10571302D03*
G01*
X2351100Y10993297D03*
G01*
X2401112Y10993297D03*
G01*
X2451100Y10993297D03*
G01*
X2501112Y10993297D03*
G01*
X2551099Y10993297D03*
D31*
G01*
X1054887Y9879406D03*
G01*
X1054887Y9829393D03*
G01*
X1054887Y9779406D03*
G01*
X1054887Y9729393D03*
D32*
G01*
X1131100Y9703145D03*
G01*
X1181087Y9703145D03*
G01*
X1231099Y9703145D03*
D31*
G01*
X1307287Y9729393D03*
G01*
X1307287Y9779406D03*
G01*
X1307287Y9829393D03*
G01*
X1307287Y9879406D03*
D32*
G01*
X1231099Y9905654D03*
G01*
X1181087Y9905654D03*
G01*
X1131100Y9905654D03*
D33*
G01*
X1576203Y9754006D03*
G01*
X1576203Y9803993D03*
D34*
G01*
X1588693Y9866501D03*
G01*
X1638706Y9866501D03*
G01*
X1688693Y9866501D03*
G01*
X1738706Y9866501D03*
D33*
G01*
X1751194Y9803993D03*
G01*
X1751194Y9754006D03*
D34*
G01*
X1738706Y9691498D03*
G01*
X1688693Y9691498D03*
G01*
X1638706Y9691498D03*
G01*
X1588693Y9691498D03*
D35*
G01*
X2236998Y9828999D03*
G01*
X2236998Y9779000D03*
G01*
X2236998Y9729000D03*
G01*
X2184001Y9701001D03*
G01*
X2134001Y9701001D03*
G01*
X2081001Y9729000D03*
G01*
X2081001Y9779000D03*
G01*
X2081001Y9828999D03*
G01*
X2134001Y9856998D03*
G01*
X2184001Y9856998D03*
D36*
G01*
X3987800Y13019989D03*
G01*
X4114800Y13019989D03*
G01*
X4241800Y13019989D03*
G01*
X4368800Y13019989D03*
G01*
X3987800Y13573810D03*
G01*
X4114800Y13573810D03*
G01*
X4241800Y13573810D03*
G01*
X4368800Y13573810D03*
D17*
G01*
X4178300Y13296900D03*
D37*
G01*
X6075493Y12647802D03*
G01*
X6075493Y12877800D03*
G01*
X6075493Y13107797D03*
D38*
G01*
X5481497Y12877800D03*
D39*
G01*
X3220999Y12903200D03*
G01*
X3510000Y12903200D03*
D40*
G01*
X1121900Y10405211D03*
G01*
X1341899Y10405211D03*
G01*
X1341899Y10575213D03*
G01*
X1121900Y10575213D03*
D41*
G01*
X5081799Y13284198D03*
G01*
X4671800Y13284198D03*
M02*
